# xmcd
#
# Track frame offsets: 
#        150
#        11622
#        25753
#        39149
#        53632
#        66203
#        80727
#        103859
#        122105
#        145760
#        171286
#        189979
#        205529
#        219047
#        231533
#        243634
#        257740
#        271715
#        284327
#        297121
#        309465
#        323845
#
# Disc length: 4573 seconds
#
# Revision: 2
# Processed by: cddbd v1.5.2PL0 Copyright (c) Steve Scherf et al.
# Submitted via: ExactAudioCopy v0.95b4
#
DISCID=3711db16
DTITLE=Dizzy Gillespie - The Dizzy Gillespie Story 1939-1950 [CD3 -
DTITLE=Ool-Ya-Koo)
DYEAR=2001
DGENRE=Jazz
TTITLE0=Moody Speaks
TTITLE1=Emanon
TTITLE2=Ow!
TTITLE3=Oo-Pop-A-Da
TTITLE4=Two Bass Hit
TTITLE5=Stay On It
TTITLE6=A Night In Tunisia
TTITLE7=Dizzy Atmosphere
TTITLE8=Groovin' High
TTITLE9=Confirmation
TTITLE10=Ko Ko
TTITLE11=Leap Here
TTITLE12=Algo Bueno (Woody'N'You)
TTITLE13=Cool Breeze
TTITLE14=Cubana Be
TTITLE15=Cubana Bop
TTITLE16=Manteca
TTITLE17=Good Bait
TTITLE18=Ool-Ya-Koo
TTITLE19=Minor Walk
TTITLE20=Guarachi Guaro
TTITLE21=Duff Capers
EXTD=
EXTT0=
EXTT1=
EXTT2=
EXTT3=
EXTT4=
EXTT5=
EXTT6=
EXTT7=
EXTT8=
EXTT9=
EXTT10=
EXTT11=
EXTT12=
EXTT13=
EXTT14=
EXTT15=
EXTT16=
EXTT17=
EXTT18=
EXTT19=
EXTT20=
EXTT21=
PLAYORDER=
